<svg xmlns="http://www.w3.org/2000/svg" xmlns:xlink="http://www.w3.org/1999/xlink" width="1920" height="1080" viewBox="0 0 1920 1080">
  <defs>
    <clipPath id="clip-path">
      <path id="Path_191" data-name="Path 191" d="M540.01,461.6c0,28.212-19.63,40.847-46.082,40.847s-53.233-8.884-53.233-37.1,31.809-41.8,46.349-60.886C513.495,404.464,540.01,433.39,540.01,461.6Z" fill="none"/>
    </clipPath>
    <clipPath id="clip-Background">
      <rect width="1920" height="1080"/>
    </clipPath>
  </defs>
  <g id="Background" clip-path="url(#clip-Background)">
    <rect width="1920" height="1080" fill="#fffcf1"/>
    <rect id="Rectangle_1" data-name="Rectangle 1" width="960" height="1080" transform="translate(960)" fill="#f8ebb6"/>
    <path id="Intersection_1" data-name="Intersection 1" d="M-3906,427.551V72.449c.488-.484.982-.969,1.474-1.449h349.051A249.255,249.255,0,0,1-3480,250c0,138.072-111.929,250-250,250A249.215,249.215,0,0,1-3906,427.551Z" transform="translate(4866 -71)" fill="#f3db79"/>
    <circle id="Ellipse_2" data-name="Ellipse 2" cx="250" cy="250" r="250" transform="translate(1704 630)" fill="#f3db79"/>
    <g id="Group_88" data-name="Group 88" transform="translate(1553.133 242.5)">
      <g id="Group_86" data-name="Group 86">
        <path id="Path_60" data-name="Path 60" d="M80.283,153.066C43.552,153.066,7.5,117.015,7.5,80.283S43.552,7.5,80.283,7.5c30.785,0,54.754,25.689,72.255,44.446,3.132,3.357,6.09,6.527,8.8,9.243,17.694,17.692,34.407,34.406,68.546,17.334a65.145,65.145,0,0,0,15.778-11.231c-11.508-10.841-17.582-25.613-17.582-37.462,0-6.392,1.715-11.835,4.961-15.742,3.58-4.311,8.915-6.589,15.427-6.589,11.115,0,18.434,5.071,20.607,14.279,2.88,12.2-4.076,30.884-17.659,45.356a51.008,51.008,0,0,0,32.46,11.181c13.957,0,25.309-3.706,33.792-9.091q-1.233-1.212-2.421-2.515c-10.133-11.142-14.593-24.843-10.843-33.323,1.651-3.732,5.572-8.183,14.879-8.183,6.4,0,11.67,1.7,15.232,4.915a16.076,16.076,0,0,1,5.156,12.325c0,8.5-5.424,18.984-15.728,27.058,8.882,7.221,25.551,16.338,47.83,8.915a1.967,1.967,0,1,1,1.243,3.732A53.046,53.046,0,0,1,320.6,71.92c-9.167,6.106-21.5,10.33-36.725,10.33a54.7,54.7,0,0,1-35.217-12.327,69.648,69.648,0,0,1-17.016,12.12c-36.674,18.339-55.187-.172-73.087-18.074-2.763-2.762-5.743-5.956-8.9-9.339-17.008-18.23-40.3-43.2-69.377-43.2-34.1,0-68.849,34.746-68.849,68.849s34.746,68.849,68.849,68.849c34.085,0,51.551-16.959,51.723-17.13a1.966,1.966,0,0,1,2.779,2.783C134.04,135.533,116.094,153.066,80.283,153.066Zm239-123.928c-5.773,0-9.568,1.964-11.282,5.84-3.09,6.987,1.182,19.219,10.157,29.084.7.768,1.646,1.755,2.831,2.864,9.66-7.29,14.748-16.789,14.748-24.483a12.247,12.247,0,0,0-3.858-9.4C329.056,30.488,324.7,29.138,319.288,29.138Zm-70.816-17.7c-5.381,0-9.552,1.739-12.4,5.168-2.652,3.191-4.052,7.766-4.052,13.228,0,10.974,5.664,24.664,16.39,34.695,12.687-13.5,19.426-30.9,16.842-41.843C263.513,15.324,257.71,11.434,248.471,11.434Z" transform="translate(-7.5 -7.5)" fill="#fff"/>
      </g>
      <g id="Group_87" data-name="Group 87" transform="translate(104.793 123.928)">
        <path id="Path_61" data-name="Path 61" d="M102.611,125.072a1.94,1.94,0,0,1-.581-.088,1.967,1.967,0,0,1-1.3-2.459l5.117-16.591H89.376a1.967,1.967,0,0,1,0-3.934h19.135a1.968,1.968,0,0,1,1.881,2.547l-5.9,19.137A1.97,1.97,0,0,1,102.611,125.072Z" transform="translate(-87.409 -102)" fill="#fff"/>
      </g>
    </g>
    <g id="Group_108" data-name="Group 108" transform="matrix(0.848, 0.53, -0.53, 0.848, 846.755, 368.708)">
      <g id="Group_40" data-name="Group 40" transform="translate(418.5 13.659)">
        <path id="Path_32" data-name="Path 32" d="M519.6,456.038c-14.726,0-27.245-3.462-36.2-10.016-9.875-7.225-15.1-18.009-15.1-31.188,0-15.582,7.282-28.254,21.06-36.648,12.05-7.343,28.589-11.224,47.831-11.224,31.223,0,63.73,9.929,85.423,26.83A115.045,115.045,0,0,0,642.6,328.08c0-29.111-12.563-58.123-35.844-83.649a213.42,213.42,0,0,1-17.831,14.913C554.342,285.284,512.362,301.4,479.368,301.4c-18.3,0-32.883-4.777-43.353-14.2C424.393,276.74,418.5,261.037,418.5,240.53c0-40.1,23.113-63.1,63.413-63.1,33.9,0,75.421,16.8,108.372,43.841a200.468,200.468,0,0,1,16.574,15.2c21.44-21.455,35.744-46.381,35.744-70.638,0-29.139-15.053-55.843-36.161-76.537q-4,3.63-8.319,7.164c-29.718,24.27-63.9,39.346-89.2,39.346-12.391,0-22.206-3.543-29.163-10.528-7.6-7.631-11.46-19.12-11.46-34.147,0-16.58,4.637-29.359,13.78-37.98,8.2-7.732,20.02-11.821,34.176-11.821,27.593,0,62.972,15.66,90.138,40.608,21.18-20.3,36.209-44.113,36.209-65.508a2.767,2.767,0,1,1,5.533,0c0,21.158-13.9,46.315-37.81,69.242,22.066,21.663,37.81,49.637,37.81,80.161,0,24.561-13.361,50.9-37.393,74.758,24.286,26.581,37.393,56.934,37.393,87.493,0,29.349-9.232,52.186-21.077,69.411,12.967,11.532,21.077,25.878,21.077,42.244a2.767,2.767,0,1,1-5.533,0c0-14.571-7.155-27.413-18.7-37.862a132.886,132.886,0,0,1-20.293,21.376C579.338,443.782,547.932,456.038,519.6,456.038Zm17.6-83.542c-18.225,0-33.769,3.6-44.952,10.414-12.214,7.442-18.406,18.183-18.406,31.924,0,11.5,4.316,20.494,12.828,26.723,8,5.854,19.391,8.948,32.933,8.948,32.485,0,74.34-18.2,99.9-52.341C598.894,382.016,567.408,372.5,537.192,372.5ZM481.913,182.96c-21.615,0-57.88,7.479-57.88,57.57,0,18.873,5.277,33.19,15.685,42.558,9.42,8.479,22.761,12.777,39.649,12.777,39.8,0,89.488-23.429,123.525-55.543a194.961,194.961,0,0,0-16.117-14.776C554.768,199.278,514.588,182.96,481.913,182.96Zm34.344-136.1c-27.357,0-42.423,15.722-42.423,44.267,0,13.511,3.313,23.685,9.846,30.242,5.882,5.9,14.378,8.9,25.243,8.9,27.865,0,65.383-19.136,93.58-44.706C576.49,61.78,542.655,46.86,516.257,46.86Z" transform="translate(-418.5 -13.659)" fill="#fff"/>
      </g>
      <g id="Group_41" data-name="Group 41" transform="translate(617.703 13.66)">
        <path id="Path_33" data-name="Path 33" d="M568,44.094a2.773,2.773,0,0,1-2.422-1.424L553.2,20.393,530.8,35.327a2.767,2.767,0,1,1-3.069-4.6l24.9-16.6a2.765,2.765,0,0,1,3.953.959l13.834,24.9a2.763,2.763,0,0,1-1.075,3.761A2.734,2.734,0,0,1,568,44.094Z" transform="translate(-526.5 -13.66)" fill="#fff"/>
      </g>
    </g>
    <g id="Phonebook_contacts_icon_illustration._Smartphones_tablets_user_interface_social_media.Flat_illustration_Icons_infographics._Landing_page_site_print_" data-name="Phonebook, contacts icon, illustration. Smartphones tablets user interface social media.Flat illustration Icons infographics. Landing page site print " transform="translate(1438.5 565.5)">
      <g id="Group_485" data-name="Group 485" transform="translate(-531.466 -363.252)">
        <g id="Group_459" data-name="Group 459" transform="translate(-83.016 -129.514)">
          <path id="Path_116" data-name="Path 116" d="M864.52,553.763s114.966-105.748,75.17-197.137c-42.473-30.65-177.278,24.381-198.764,105.236S864.52,553.763,864.52,553.763Z" fill="#ffbf52"/>
          <path id="Path_117" data-name="Path 117" d="M930.619,434.46c-13.748,0-36.176-.688-52.254-4.614l2.1-8.6c23.013,5.618,63.486,5.052,63.877,5.035l-1.475,7.984C942.318,434.28,937.584,434.46,930.619,434.46Z" fill="#f5a100"/>
          <path id="Path_118" data-name="Path 118" d="M897,398.885c-.352-.868-8.752-20.772-2.854-50.114l8.856-.738c-5.342,26.585,2.135,47.337,2.209,47.528Z" fill="#f5a100"/>
          <g id="Group_457" data-name="Group 457">
            <path id="Path_119" data-name="Path 119" d="M918.809,528.516c-25.172,9.833-48.864,21.369-64.942,34.23l-5.531-6.922c10.182-8.145,23.1-15.728,37.4-22.682C889,506.59,906.32,468.274,912.121,456c-40.271,4.671-79.029,21.721-102.848,52.588-51.1,66.229,81.479,130.7,81.479,130.7s69.986-18.862,113.168-73.14c-1.975-1.853-27.865-25.261-85.432-35.912Z" fill="#56c6be"/>
            <path id="Path_120" data-name="Path 120" d="M895.4,528.631c52.821-23.744,119.356-39.326,138.907-43.622-28.262-22.459-71.457-32.951-114.022-29.785l1.651.812C921.707,456.492,900.953,498.8,895.4,528.631Z" fill="#56c6be"/>
            <path id="Path_121" data-name="Path 121" d="M1009.277,559.037a147.79,147.79,0,0,0,26.211-65.2c-15.957,3.571-60.785,14.209-104.224,29.989C980.342,534.945,1004.191,554.445,1009.277,559.037Z" fill="#56c6be"/>
            <path id="Path_122" data-name="Path 122" d="M894.443,534.862l-8.8-1.009c.023-.234.064-.475.093-.711-14.3,6.954-27.218,14.537-37.4,22.682l5.531,6.922c16.078-12.861,39.77-24.4,64.942-34.23l1.291-6.986q5.785,1.072,11.164,2.294c43.439-15.78,88.267-26.418,104.224-29.989.34-2.373.649-4.767.887-7.209-.668-.556-1.385-1.071-2.07-1.617-19.551,4.3-86.086,19.878-138.907,43.622C895,530.777,894.67,532.864,894.443,534.862Z" fill="#3dadb0"/>
            <path id="Path_123" data-name="Path 123" d="M931.264,523.824Q925,526.1,918.809,528.516l-.321,1.722c57.567,10.651,83.457,34.059,85.432,35.912q2.757-3.461,5.357-7.113C1004.191,554.445,980.342,534.945,931.264,523.824Z" fill="#3dadb0"/>
            <path id="Path_124" data-name="Path 124" d="M918.809,528.516q6.178-2.414,12.455-4.692-5.379-1.218-11.164-2.294Z" fill="#3dadb0"/>
            <path id="Path_125" data-name="Path 125" d="M895.4,528.631c5.555-29.836,26.309-72.139,26.536-72.595l-1.651-.812q-4.082.3-8.162.775c-5.8,12.275-23.117,50.591-26.385,77.143Q890.471,530.839,895.4,528.631Z" fill="#3dadb0"/>
            <path id="Path_126" data-name="Path 126" d="M894.443,534.862c.227-2,.555-4.085.955-6.231q-4.918,2.211-9.662,4.511c-.029.236-.07.477-.093.711Z" fill="#3dadb0"/>
          </g>
          <path id="Path_127" data-name="Path 127" d="M847.133,484.279l-8.115-3.556c26.187-59.752,94.783-122.907,97.693-125.565l3.572,1.365,1.844,5.9C941.428,363.067,872.561,426.26,847.133,484.279Z" fill="#f5a100"/>
          <g id="Group_458" data-name="Group 458">
            <path id="Path_128" data-name="Path 128" d="M961.518,715.507c-.8-25.728-7.821-48.268-19.075-67.277-9.754,2.484-36.019,9.6-53.185,18.378C921.023,685.873,948.91,706.092,961.518,715.507Z" fill="#3073d6"/>
            <path id="Path_129" data-name="Path 129" d="M860.555,660.333c-23.719-13.01-47.752-23.856-67.457-27.865l1.765-8.679c25.219,5.129,56.508,20.51,85.573,37.557,16.556-9.748,44.181-17.635,56.98-20.977-36-52.188-105.1-74.135-158.35-56.7-55.222,39.23-40.677,95.812-21.531,109.593,20.377,33.791,75.451,52.942,128.344,50.956-6.137-12.615-19.3-42.86-26.8-83.611Z" fill="#3073d6"/>
            <path id="Path_130" data-name="Path 130" d="M868.971,665.051c8.246,40.5,22.082,69.818,26.509,78.542,23.016-2.012,45.153-8.167,63.358-19.006C946.5,715.336,909.01,687.9,868.971,665.051Z" fill="#3073d6"/>
            <path id="Path_131" data-name="Path 131" d="M883.117,670.086l-4.756-7.474q1-.639,2.075-1.266c-29.065-17.047-60.354-32.428-85.573-37.557l-1.765,8.679c19.7,4.009,43.738,14.855,67.457,27.865L867.789,659c.375,2.049.773,4.059,1.182,6.051,40.039,22.846,77.529,50.285,89.867,59.536.932-.554,1.885-1.079,2.793-1.658.043-2.512-.039-4.965-.113-7.422-12.608-9.415-40.495-29.634-72.26-48.9C887.043,667.74,884.975,668.9,883.117,670.086Z" fill="#215eb8"/>
            <path id="Path_132" data-name="Path 132" d="M860.555,660.333l-1.477.271c7.506,40.751,20.664,71,26.8,83.611,3.213-.122,6.412-.347,9.6-.622-4.427-8.724-18.263-38.045-26.509-78.542Q864.779,662.654,860.555,660.333Z" fill="#215eb8"/>
            <path id="Path_133" data-name="Path 133" d="M860.555,660.333q4.215,2.314,8.416,4.718c-.409-1.992-.807-4-1.182-6.051Z" fill="#215eb8"/>
            <path id="Path_134" data-name="Path 134" d="M889.258,666.608c17.166-8.774,43.431-15.894,53.185-18.378q-2.392-4.036-5.027-7.861c-12.8,3.342-40.424,11.229-56.98,20.977Q884.885,663.959,889.258,666.608Z" fill="#215eb8"/>
            <path id="Path_135" data-name="Path 135" d="M883.117,670.086c1.858-1.184,3.926-2.346,6.141-3.478q-4.365-2.65-8.822-5.262-1.069.625-2.075,1.266Z" fill="#215eb8"/>
          </g>
        </g>
        <g id="Group_462" data-name="Group 462" transform="translate(-83.016 -129.514)">
          <g id="Group_460" data-name="Group 460">
            <path id="Path_136" data-name="Path 136" d="M389.284,397.559c2.232-10.525,6.55-36.216,1.945-60.62-22-6.3-45.311-7.063-67.9,2.66C347.44,355.432,370.7,377.582,389.284,397.559Z" fill="#00a99d"/>
            <path id="Path_137" data-name="Path 137" d="M371.684,392.109c-16.152-16.378-34.75-33.024-53.629-45.368a113.045,113.045,0,0,0-3.921,54.58A180.032,180.032,0,0,0,371.684,392.109Z" fill="#00a99d"/>
            <path id="Path_138" data-name="Path 138" d="M400.738,340.032c4.7,31.985-3.672,63.375-4.054,64.781l-1.01-.274c19.609,21.767,32.714,39.482,33.793,40.947l-7.139,5.242A608.248,608.248,0,0,0,378.444,399.1a184.326,184.326,0,0,1-62.406,11.113c10.554,42.255,44.753,83.274,103.856,109.676,67.835,30.3,80.546-108.551,80.546-108.551S455.856,359.982,400.738,340.032Z" fill="#00a99d"/>
            <path id="Path_139" data-name="Path 139" d="M371.684,392.109c2.531-.863,4.006-1.448,4.067-1.474l3.355,8.2c-.08.035-.329.133-.662.262a608.248,608.248,0,0,1,43.884,51.633l7.139-5.242c-1.079-1.465-14.184-19.18-33.793-40.947l-7.537-2.047c.02-.077.495-1.863,1.147-4.933-18.586-19.977-41.844-42.127-65.958-57.96-1.082.465-2.16.938-3.237,1.45q-1.1,2.824-2.034,5.692C336.934,359.085,355.532,375.731,371.684,392.109Z" fill="#00949d"/>
            <path id="Path_140" data-name="Path 140" d="M371.684,392.109a180.032,180.032,0,0,1-57.55,9.212c.507,2.967,1.165,5.928,1.9,8.887A184.326,184.326,0,0,0,378.444,399.1Q375.138,395.622,371.684,392.109Z" fill="#00949d"/>
            <path id="Path_141" data-name="Path 141" d="M375.751,390.635c-.061.026-1.536.611-4.067,1.474q3.461,3.512,6.76,6.986c.333-.129.582-.227.662-.262Z" fill="#00949d"/>
            <path id="Path_142" data-name="Path 142" d="M389.284,397.559q3.3,3.546,6.39,6.98l1.01.274c.382-1.406,8.753-32.8,4.054-64.781-3.139-1.137-6.31-2.177-9.509-3.093C395.834,361.343,391.516,387.034,389.284,397.559Z" fill="#00949d"/>
            <path id="Path_143" data-name="Path 143" d="M388.137,402.492l7.537,2.047q-3.089-3.434-6.39-6.98C388.632,400.629,388.157,402.415,388.137,402.492Z" fill="#00949d"/>
          </g>
          <g id="Group_461" data-name="Group 461">
            <path id="Path_144" data-name="Path 144" d="M381.745,498.8a604.912,604.912,0,0,1,72.981,5.527,162.884,162.884,0,0,0-6.683-35.93l-23.778-12.125c-19.191-5.022-49.8-4.7-76.052,9.763C366.106,477.553,378.95,494.849,381.745,498.8Z" fill="#56c6be"/>
            <path id="Path_145" data-name="Path 145" d="M378.57,508.33c-24.826-.159-49.149,1.744-67.834,7.515,5.746,14.03,18.579,25.485,34.421,33.4C348.661,546.259,369.683,527.822,378.57,508.33Z" fill="#56c6be"/>
            <path id="Path_146" data-name="Path 146" d="M339.793,471.283a89.793,89.793,0,0,0-29.6,35.576c17.669-5.328,38.8-7.6,60.439-8.016C364.777,491.563,353.508,479.063,339.793,471.283Z" fill="#56c6be"/>
            <path id="Path_147" data-name="Path 147" d="M354.032,553.186c30.725,12.067,68.908,11.675,89.264-7.233,8.241-7.665,11.182-19.759,11.58-32.134-18.935-2.37-42.564-4.672-66.37-5.319C380.643,527.467,362.067,545.844,354.032,553.186Z" fill="#56c6be"/>
            <path id="Path_148" data-name="Path 148" d="M496.87,511.215c-1.794-.377-18.492-3.753-42.144-6.893.191,3.14.254,6.323.15,9.5,23.471,2.94,39.728,5.973,40.161,6.065Z" fill="#3dadb0"/>
            <path id="Path_149" data-name="Path 149" d="M454.726,504.322a604.912,604.912,0,0,0-72.981-5.527c.3.427.527.749.589.838l-7.329,4.977c-.048-.07-1.614-2.344-4.37-5.767-21.637.412-42.77,2.688-60.439,8.016-.489,1.033-.989,2.048-1.453,3.114a44.3,44.3,0,0,0,1.993,5.872c18.685-5.771,43.008-7.674,67.834-7.515.508-1.115,1.006-2.235,1.43-3.357l9.256,1.762c-.225.591-.507,1.177-.75,1.765,23.806.647,47.435,2.949,66.37,5.319C454.98,510.645,454.917,507.462,454.726,504.322Z" fill="#3dadb0"/>
            <path id="Path_150" data-name="Path 150" d="M370.635,498.843c3.7-.072,8.391.724,12.1.756-2.8-3.945-16.626-22.046-34.519-33.569a91.677,91.677,0,0,0-8.42,5.253C353.508,479.063,364.777,491.563,370.635,498.843Z" fill="#3dadb0"/>
            <path id="Path_151" data-name="Path 151" d="M370.635,498.843c2.756,3.423,4.322,5.7,4.37,5.767l7.329-4.977c-.062-.089-.287-.411-.589-.838C378.04,498.763,374.332,498.771,370.635,498.843Z" fill="#3dadb0"/>
            <path id="Path_152" data-name="Path 152" d="M388.506,508.5c-3.316-.09-6.28-1.006-9.584-1.027-8.887,19.492-30.261,38.786-33.765,41.768q4.307,2.152,8.875,3.945C362.067,545.844,380.643,527.467,388.506,508.5Z" fill="#3dadb0"/>
            <path id="Path_153" data-name="Path 153" d="M389.256,506.735,380,504.973c-.424,1.122-.922,2.242-1.43,3.357q4.957.03,9.936.17C388.749,507.912,389.031,507.326,389.256,506.735Z" fill="#3dadb0"/>
          </g>
        </g>
        <path id="Path_154" data-name="Path 154" d="M954.031,844.207c0,6.523-4.916,11.811-10.98,11.811H147.143c-6.064,0-10.979-5.288-10.979-11.811h0c0-6.522,4.915-11.81,10.979-11.81H943.051c6.064,0,10.98,5.288,10.98,11.81Z" transform="translate(-83.016 -129.514)" fill="#c9d9e3" opacity="0.3"/>
        <path id="Path_155" data-name="Path 155" d="M856.6,795.246c0,20.52-15.455,37.151-34.522,37.151H524.994c-19.065,0-34.52-16.631-34.52-37.151V255.407c0-20.516,15.455-37.149,34.52-37.149h297.08c19.067,0,34.522,16.633,34.522,37.149Z" transform="translate(-83.016 -129.514)" fill="#383682"/>
        <rect id="Rectangle_8526" data-name="Rectangle 8526" width="53.146" height="8.858" transform="translate(566.898 112.365)" fill="#a5b1c4"/>
        <path id="Path_156" data-name="Path 156" d="M836.787,764.047V263.778c0-13.454-7.209-22.952-20.662-22.952H745.482l-11.875,29.526h-61.72v516.7H817.516c11.642,0,19.271-10.579,19.271-20.288A16.593,16.593,0,0,0,836.787,764.047Z" transform="translate(-83.016 -129.514)" fill="#fff7d8"/>
        <path id="Path_157" data-name="Path 157" d="M512.019,764.047V263.778c0-13.454,7.208-22.952,20.662-22.952h70.642L615.2,270.352h61.723v516.7H531.292c-11.649,0-19.273-10.579-19.273-20.288A16.593,16.593,0,0,1,512.019,764.047Z" transform="translate(-83.016 -129.514)" fill="#fff7d8"/>
        <rect id="Rectangle_8527" data-name="Rectangle 8527" width="106.292" height="14.764" transform="translate(457.653 611.352)" fill="#f1dca2"/>
        <rect id="Rectangle_8528" data-name="Rectangle 8528" width="44.289" height="14.764" transform="translate(581.662 611.352)" fill="#f1dca2"/>
        <rect id="Rectangle_8529" data-name="Rectangle 8529" width="64.955" height="14.764" transform="translate(649.572 611.352)" fill="#f1dca2"/>
        <path id="Path_158" data-name="Path 158" d="M265.077,422.607l-11.166-15.332c-3.2,7.841-24.741,17.3-24.558,35.155.1,9.843-.922,15.357-6.826,19.417-3.628,2.494-21.107,12.282-16.978,25.466s18.877,18.529,26.919,19.616c6.79.916,26.369-3.184,18.741-19.112-3.956-8.256,1.077-11.33,5.641-13.422s-1.17-12.938-8.857-36.907C245.269,429.005,259.664,421.716,265.077,422.607Z" transform="translate(-83.016 -129.514)" fill="#3d3369"/>
        <path id="Path_159" data-name="Path 159" d="M164.76,454.465H107.566a24.58,24.58,0,0,1-24.55-24.555v-1.083a24.58,24.58,0,0,1,24.55-24.556H164.76a24.581,24.581,0,0,1,24.55,24.556v1.083A24.581,24.581,0,0,1,164.76,454.465Zm-57.194-41.336a15.712,15.712,0,0,0-15.691,15.7v1.083a15.711,15.711,0,0,0,15.691,15.7H164.76a15.712,15.712,0,0,0,15.692-15.7v-1.083a15.712,15.712,0,0,0-15.692-15.7Z" transform="translate(-83.016 -129.514)" fill="#f3db79"/>
        <path id="Path_160" data-name="Path 160" d="M1115.113,392.46h-71.2a30.875,30.875,0,0,1-30.834-30.843V361.3a30.875,30.875,0,0,1,30.834-30.843h71.2a30.876,30.876,0,0,1,30.836,30.843v.317A30.876,30.876,0,0,1,1115.113,392.46Zm-71.2-53.146A22.007,22.007,0,0,0,1021.94,361.3v.317a22.007,22.007,0,0,0,21.978,21.985h71.2a22.008,22.008,0,0,0,21.981-21.985V361.3a22.009,22.009,0,0,0-21.981-21.986Z" transform="translate(-83.016 -129.514)" fill="#f3db79"/>
        <rect id="Rectangle_8532" data-name="Rectangle 8532" width="79.721" height="8.858" transform="translate(11.81 493.248)" fill="#f3db79"/>
        <rect id="Rectangle_8533" data-name="Rectangle 8533" width="62.006" height="8.858" transform="translate(938.924 490.297)" fill="#f3db79"/>
        <rect id="Rectangle_8534" data-name="Rectangle 8534" width="56.099" height="8.857" transform="translate(233.255 50.361)" fill="#f3db79"/>
        <g id="Group_464" data-name="Group 464" transform="translate(-83.016 -129.514)">
          <path id="Path_161" data-name="Path 161" d="M281.053,446.155c15.212-6.015,24.406-22.064,24.641-38.321-.175-.79-.366-1.5-.441-2.006-1.662-11.176-13.93-17.144-20-17.508h-4.17c-15.2,0-25.566,8.985-27.555,23.571,0,0-1.989,27.191,21,27.191C279.913,439.082,281.315,442.084,281.053,446.155Z" fill="#3d3369"/>
          <path id="Path_162" data-name="Path 162" d="M231.959,603.871s-15.433,100.623-20.669,123.64c-6.044,26.545-22.144,104.816-22.144,104.816h19.191s36.239-68.729,46.745-93.5c13.783-32.479,30.022-98.421,30.022-98.421Z" fill="#4a8fd4"/>
          <path id="Path_163" data-name="Path 163" d="M270.077,462.648l34.681-.5a35.791,35.791,0,0,1,21.109,11.51C338.908,487.93,372.86,520.9,377.29,525.33c-7.133,12.548-14.764,17.715-17.716,23.619-8.858-2.951-35.105-18.769-35.105-18.769l3.131,93.464L231.416,608.67l1.3-35.611S237,487,242.131,476.448C250.729,462.141,261.311,462.4,270.077,462.648Z" fill="#e49a05"/>
          <path id="Path_164" data-name="Path 164" d="M270.1,425.818l-1.454,36.842,23.563-.151-2.953-13.626s8.284-.539,11.9-7.258c2.429-4.518,2.082-18.076,2.082-18.076L290.66,403.273S288.338,424.824,270.1,425.818Z" fill="#ffb07d"/>
          <path id="Path_165" data-name="Path 165" d="M330.131,647.054l-98.912,7.011.266-51.111,95.694-.19,1.494,19.507Z" fill="#4a8fd4"/>
          <path id="Path_166" data-name="Path 166" d="M282.151,647.79l-4.428,19.231,23.4,168.329H324.74l-1.967-10.418,8.1-164.575-2.018-40.606-23.621,9.594Z" fill="#3073d6"/>
          <path id="Path_167" data-name="Path 167" d="M188.551,838.3H213.28l-1.477-11.81H189.289Z" fill="#3d3369"/>
          <path id="Path_168" data-name="Path 168" d="M300.75,838.3h27.681l-5.662-11.567-11.316,2.712h-11.32Z" fill="#3d3369"/>
          <path id="Path_169" data-name="Path 169" d="M261.115,463.253s-14.395-1.107-23.621,14.763c-5.328,9.167-33.326,44.338-36.538,62.007a34.959,34.959,0,0,0,11.81,33.462l31.741-.986s26.325-57.082,25.339-63.97S261.115,463.253,261.115,463.253Z" fill="#e49a05"/>
          <path id="Path_170" data-name="Path 170" d="M234.912,545.189l-4.788,24.518,46.123-6.435,5.536,7.013,15.87-4.429s-1.845-7.012-5.168-10.334A18.608,18.608,0,0,0,277.55,550.3Z" fill="#ffb07d"/>
          <rect id="Rectangle_8535" data-name="Rectangle 8535" width="35.408" height="8.859" transform="matrix(0.284, -0.959, 0.959, 0.284, 242.959, 532.857)" fill="#cd8900"/>
          <rect id="Rectangle_8536" data-name="Rectangle 8536" width="8.856" height="14.762" transform="translate(322.177 507.612)" fill="#cd8900"/>
        </g>
        <path id="Rectangle_8537" data-name="Rectangle 8537" d="M14.844,0H94.4a14.842,14.842,0,0,1,14.842,14.842V153.454A14.845,14.845,0,0,1,94.4,168.3H14.842A14.842,14.842,0,0,1,0,153.456V14.844A14.844,14.844,0,0,1,14.844,0Z" transform="translate(625.951 130.08)" fill="#fff"/>
        <path id="Rectangle_8538" data-name="Rectangle 8538" d="M14.843,0H94.4a14.842,14.842,0,0,1,14.842,14.842V153.455A14.842,14.842,0,0,1,94.4,168.3H14.842A14.842,14.842,0,0,1,0,153.455V14.843A14.843,14.843,0,0,1,14.843,0Z" transform="translate(625.951 324.951)" fill="#fff"/>
        <g id="Group_465" data-name="Group 465" transform="translate(-83.016 -129.514)">
          <path id="Path_171" data-name="Path 171" d="M664.4,203.582l-73.93-73.9H798.83c30.607,0,56.785,12.41,56.785,73.552Z" fill="#e4bc4d"/>
          <path id="Path_172" data-name="Path 172" d="M424.468,723.151l271.95-.738S756.207,735.9,756.207,662V196c0-73.1,52.068-66.318,52.068-66.318H499.441c-52.189,0-85.733,20.7-85.733,82.392V682.84s1.3,12.826-.7,19.888C407.969,720.522,424.468,723.151,424.468,723.151Z" fill="#f4f0e9"/>
          <path id="Path_173" data-name="Path 173" d="M672.307,649.671c-7.912,60.842,35.545,73.48,35.545,73.48H443.394c-50.3,0-77.456-8.491-77.456-73.344C365.938,649.807,618.762,649.671,672.307,649.671Z" fill="#e4bc4d"/>
        </g>
        <g id="Group_468" data-name="Group 468" transform="translate(-83.016 -129.514)">
          <rect id="Rectangle_8540" data-name="Rectangle 8540" width="41.336" height="8.858" transform="translate(673.535 212.352)" fill="#e0d4c4"/>
          <rect id="Rectangle_8541" data-name="Rectangle 8541" width="56.1" height="8.858" transform="translate(658.771 244.831)" fill="#e0d4c4"/>
          <rect id="Rectangle_8542" data-name="Rectangle 8542" width="17.715" height="8.858" transform="translate(629.246 244.831)" fill="#e0d4c4"/>
          <rect id="Rectangle_8543" data-name="Rectangle 8543" width="38.383" height="8.857" transform="translate(629.246 274.357)" fill="#e0d4c4"/>
          <rect id="Rectangle_8544" data-name="Rectangle 8544" width="26.573" height="8.858" transform="translate(629.246 212.352)" fill="#d1bfa7"/>
          <rect id="Rectangle_8545" data-name="Rectangle 8545" width="35.432" height="8.857" transform="translate(679.44 274.357)" fill="#e0d4c4"/>
        </g>
        <g id="Group_469" data-name="Group 469" transform="translate(-83.016 -129.514)">
          <rect id="Rectangle_8546" data-name="Rectangle 8546" width="41.336" height="8.857" transform="translate(673.535 374.745)" fill="#e0d4c4"/>
          <rect id="Rectangle_8547" data-name="Rectangle 8547" width="56.1" height="8.858" transform="translate(658.771 407.224)" fill="#e0d4c4"/>
          <rect id="Rectangle_8548" data-name="Rectangle 8548" width="17.715" height="8.858" transform="translate(629.246 407.224)" fill="#e0d4c4"/>
          <rect id="Rectangle_8549" data-name="Rectangle 8549" width="38.383" height="8.857" transform="translate(629.246 436.75)" fill="#e0d4c4"/>
          <rect id="Rectangle_8550" data-name="Rectangle 8550" width="26.573" height="8.857" transform="translate(629.246 374.745)" fill="#e0d4c4"/>
          <rect id="Rectangle_8551" data-name="Rectangle 8551" width="35.432" height="8.857" transform="translate(679.44 436.75)" fill="#e0d4c4"/>
        </g>
        <g id="Group_470" data-name="Group 470" transform="translate(-83.016 -129.514)">
          <rect id="Rectangle_8552" data-name="Rectangle 8552" width="29.525" height="8.858" transform="translate(685.346 528.28)" fill="#e0d4c4"/>
          <rect id="Rectangle_8553" data-name="Rectangle 8553" width="56.1" height="8.858" transform="translate(658.771 560.759)" fill="#e0d4c4"/>
          <rect id="Rectangle_8554" data-name="Rectangle 8554" width="17.715" height="8.858" transform="translate(629.246 560.759)" fill="#e0d4c4"/>
          <rect id="Rectangle_8555" data-name="Rectangle 8555" width="38.383" height="8.858" transform="translate(629.246 590.284)" fill="#e0d4c4"/>
          <rect id="Rectangle_8556" data-name="Rectangle 8556" width="47.242" height="8.858" transform="translate(629.246 528.28)" fill="#e0d4c4"/>
          <rect id="Rectangle_8557" data-name="Rectangle 8557" width="35.432" height="8.858" transform="translate(679.44 590.284)" fill="#e0d4c4"/>
        </g>
        <g id="Group_473" data-name="Group 473" transform="translate(-83.016 -129.514)">
          <path id="Rectangle_8558" data-name="Rectangle 8558" d="M25.573,0h90.58a25.57,25.57,0,0,1,25.57,25.57v84.676a25.572,25.572,0,0,1-25.572,25.572H25.571A25.571,25.571,0,0,1,0,110.248V25.573A25.573,25.573,0,0,1,25.573,0Z" transform="translate(449.138 179.874)" fill="#3073d6"/>
          <g id="Group_471" data-name="Group 471">
            <path id="Path_183" data-name="Path 183" d="M535.824,236.245l5.871-17.61v-9.108l-5.635,2.007Z" fill="#fa7500"/>
            <path id="Path_184" data-name="Path 184" d="M495.415,226.9c-.42-10.193,1.7-28.474,22.515-28.474,0,0-.127-.04,6.718-.04,15.622,0,19.33,13.35,18.466,20.244-1.067,8.523-19.106,24.991-19.36,26.742-4.272-2.513-4,18.433-4.117,20.044l-13.176-18.99c-5.756-1.052-9.77-1.7-10.411-6.375Z" fill="#e49a05"/>
            <path id="Path_185" data-name="Path 185" d="M501.368,226.043l-.844,38.926,28.674-.142v-10.25s8.236-2.2,8.766-10.017c.339-5.005.536-28.768.536-28.768s-14.573-.063-18.113.358C518.611,232.487,501.368,226.043,501.368,226.043Z" fill="#ffb07d"/>
            <path id="Path_186" data-name="Path 186" d="M496.945,236.917c0,3.687,4.262,9.09,8.523,9.09V243.6c0-7.359,5.167-22.718,5.167-22.718,0-3.683-2.629-6.676-5.438-6.676h0c-5.617,0-8.252,2.993-8.252,6.676Z" fill="#e49a05"/>
            <path id="Path_187" data-name="Path 187" d="M501.657,231.069a6.351,6.351,0,1,0,6.354-6.179A6.269,6.269,0,0,0,501.657,231.069Z" fill="#ffb07d"/>
          </g>
          <g id="Group_472" data-name="Group 472">
            <path id="Path_188" data-name="Path 188" d="M569.214,315.448c-1.62-7.465-6.666-30.959-8.691-34.661-6.216-14.564-21.285-16.295-28.407-16.115l-38.379.132s-20.228-.178-24.069,16.692c-1.124,4.939-5.768,21.894-7.733,30.262,0,0,2.462,4.428,17.714,4.183C502.284,315.578,569.214,315.448,569.214,315.448Z" fill="#4d3b87"/>
          </g>
          <path id="Path_189" data-name="Path 189" d="M500.317,264.45l.71,7.457,14.561-4.083,13.493,3.728.537-6.926Z" fill="#fff"/>
        </g>
        <g id="Group_479" data-name="Group 479" transform="translate(-83.016 -129.514)">
          <path id="Rectangle_8559" data-name="Rectangle 8559" d="M25.571,0h90.583a25.57,25.57,0,0,1,25.57,25.57v85.235a25.573,25.573,0,0,1-25.573,25.573H25.571A25.571,25.571,0,0,1,0,110.808V25.571A25.571,25.571,0,0,1,25.571,0Z" transform="translate(449.138 336.805)" fill="#4e7ea8"/>
          <path id="Path_190" data-name="Path 190" d="M555.586,409.092c-2.5-8.428-8.3-33.9-9.542-39.652-2.17-9.96-9.1-17.993-20.559-17.993H521.2c-15.62,0-26.93,5.482-29.31,26.951a95.849,95.849,0,0,1-15.727,40.215c-5.8,8.4-2.814,37.17,7.012,37.17l46.872-30.014c3.046,2.1,27.03,36.692,30.611,35.04C584.276,449.9,566.55,415.288,555.586,409.092Z" fill="#3d3369"/>
          <g id="Group_475" data-name="Group 475">
            <g id="Group_474" data-name="Group 474" clip-path="url(#clip-path)">
              <path id="Rectangle_8560" data-name="Rectangle 8560" d="M25.569,0h90.584a25.57,25.57,0,0,1,25.57,25.57v84.68a25.57,25.57,0,0,1-25.57,25.57H25.571A25.571,25.571,0,0,1,0,110.249V25.569A25.569,25.569,0,0,1,25.569,0Z" transform="translate(449.138 336.361)" fill="#3d3369"/>
            </g>
          </g>
          <path id="Path_192" data-name="Path 192" d="M512.232,389.56l-3.812,35.255,20.992.309.2-11.43s8.511-.56,12.225-7.463c2.5-4.642,2.145-18.578,2.145-18.578l-12.686-16.2S530.34,388.13,512.232,389.56Z" fill="#ffb07d"/>
          <g id="Group_478" data-name="Group 478">
            <g id="Group_477" data-name="Group 477">
              <g id="Group_476" data-name="Group 476">
                <path id="Path_193" data-name="Path 193" d="M566.106,471.313c-1.494-6.892-7.151-24.293-9.014-27.711-5.739-13.444-21.314-18.695-27.894-18.527l-23.961-.136s-20.854,1.661-25.622,21.39c-1.1,4.546-5.75,19.946-6.671,24.984Z" fill="#5f54fc"/>
              </g>
            </g>
          </g>
          <path id="Path_194" data-name="Path 194" d="M507.082,424.939l13.288,21.406,11.071-21.221Z" fill="#fff"/>
        </g>
        <g id="Group_484" data-name="Group 484" transform="translate(-83.016 -129.514)">
          <path id="Rectangle_8561" data-name="Rectangle 8561" d="M25.57,0h90.583a25.57,25.57,0,0,1,25.57,25.57v84.68a25.57,25.57,0,0,1-25.57,25.57H25.571A25.571,25.571,0,0,1,0,110.249V25.57A25.57,25.57,0,0,1,25.57,0Z" transform="translate(449.138 492.849)" fill="#006ba9"/>
          <g id="Group_482" data-name="Group 482">
            <g id="Group_481" data-name="Group 481">
              <g id="Group_480" data-name="Group 480">
                <path id="Path_195" data-name="Path 195" d="M468.578,628.652c1.663-7.669,6.089-28.579,8.172-32.385,6.382-14.967,21.873-16.746,29.2-16.564l39.442.137s20.8-.18,24.741,17.16c1.155,5.077,4.454,23.162,7.446,29.125,0,0-4.535,3.035-12.138,3.035C534.08,629.16,468.578,628.652,468.578,628.652Z" fill="#fff"/>
              </g>
            </g>
          </g>
          <g id="Group_483" data-name="Group 483">
            <path id="Path_196" data-name="Path 196" d="M502.128,550.491,496.1,532.386v-9.359l5.794,2.059Z" fill="#fa7500"/>
            <path id="Path_197" data-name="Path 197" d="M543.667,540.889c.433-10.479-1.748-29.27-23.142-29.27,0,0,.133-.04-6.908-.04-16.054,0-19.862,13.722-18.978,20.807,1.094,8.759,19.636,25.688,19.906,27.487,4.388-2.584,4.1,18.944,4.225,20.6l13.547-19.518c5.911-1.078,10.04-1.744,10.7-6.547Z" fill="#3d3b78"/>
            <path id="Path_198" data-name="Path 198" d="M537.549,540l.864,40.013-19.261,6.911-10.212-7.059V569.327s-8.46-2.263-9.008-10.3c-.349-5.142-.546-29.565-.546-29.565s14.974-.067,18.615.366C519.83,546.624,537.549,540,537.549,540Z" fill="#ffb07d"/>
            <path id="Path_199" data-name="Path 199" d="M543.622,554.209c0,3.793-5.907,9.346-8.859,9.346v-2.48c0-7.559-6.028-23.347-6.028-23.347,0-3.788,3.116-6.865,6-6.865h0c5.769,0,8.883,3.077,8.883,6.865Z" fill="#3d3b78"/>
            <path id="Path_200" data-name="Path 200" d="M537.248,545.167a6.527,6.527,0,1,1-6.521-6.352A6.441,6.441,0,0,1,537.248,545.167Z" fill="#ffb07d"/>
          </g>
        </g>
        <path id="Path_201" data-name="Path 201" d="M411.741,509.582l10.823.986v23.62l-19.682-.987Z" transform="translate(-83.016 -129.514)" fill="#ffb07d"/>
        <path id="Path_202" data-name="Path 202" d="M372.37,520.9s49.208-6.4,47.242-3.443-3.939,13.78-3.939,13.78l-59.051,18.7Z" transform="translate(-83.016 -129.514)" fill="#ffb07d"/>
        <rect id="Rectangle_8562" data-name="Rectangle 8562" width="41.336" height="14.763" transform="translate(673.191 165.511)" fill="#e4bc4d" opacity="0.52"/>
        <rect id="Rectangle_8563" data-name="Rectangle 8563" width="38.385" height="14.762" transform="translate(673.191 398.766)" fill="#e4bc4d" opacity="0.52"/>
        <rect id="Rectangle_8564" data-name="Rectangle 8564" width="29.527" height="14.764" transform="translate(673.191 206.847)" fill="#e4bc4d" opacity="0.52"/>
        <rect id="Rectangle_8565" data-name="Rectangle 8565" width="29.527" height="14.764" transform="translate(673.191 357.429)" fill="#e4bc4d" opacity="0.52"/>
        <rect id="Rectangle_8566" data-name="Rectangle 8566" width="5.908" height="16.306" transform="translate(463.568 479.74) rotate(-5.198)" fill="#e6e6e6"/>
      </g>
    </g>
    <g id="Intersection_2" data-name="Intersection 2" transform="translate(4105 50)" fill="none">
      <path d="M-3948,32a31.985,31.985,0,0,1,16-27.719A31.985,31.985,0,0,1-3916,32a31.985,31.985,0,0,1-16,27.719A31.986,31.986,0,0,1-3948,32Z" stroke="none"/>
      <path d="M -3931.999755859375 58.55744171142578 C -3927.591552734375 55.89572525024414 -3923.891357421875 52.15869903564453 -3921.2744140625 47.71866607666016 C -3918.47802734375 42.97467803955078 -3917 37.53928756713867 -3917 32.00010681152344 C -3917 26.46063613891602 -3918.47802734375 21.02508735656738 -3921.2744140625 16.28108596801758 C -3923.891357421875 11.84110355377197 -3927.591552734375 8.104138374328613 -3931.999755859375 5.44251823425293 C -3936.407958984375 8.104166030883789 -3940.1083984375 11.84114265441895 -3942.7255859375 16.28110694885254 C -3945.522216796875 21.02513694763184 -3947.000244140625 26.46068572998047 -3947.000244140625 32.00010681152344 C -3947.000244140625 37.53923797607422 -3945.522216796875 42.97461700439453 -3942.7255859375 47.71864700317383 C -3940.1083984375 52.15865707397461 -3936.407958984375 55.89570999145508 -3931.999755859375 58.55744171142578 M -3931.999755859375 59.7190055847168 C -3941.5654296875 54.18607711791992 -3948.000244140625 43.84477615356445 -3948.000244140625 32.00010681152344 C -3948.000244140625 20.15476608276367 -3941.5654296875 9.813666343688965 -3931.999755859375 4.280966758728027 C -3922.434326171875 9.813666343688965 -3916 20.15476608276367 -3916 32.00010681152344 C -3916 43.84477615356445 -3922.434326171875 54.18607711791992 -3931.999755859375 59.7190055847168 Z" stroke="none" fill="#383682"/>
    </g>
    <g id="Intersection_3" data-name="Intersection 3" transform="translate(2991.971 2846.912) rotate(45)" fill="none">
      <path d="M-3948,32a31.985,31.985,0,0,1,16-27.719A31.985,31.985,0,0,1-3916,32a31.985,31.985,0,0,1-16,27.719A31.986,31.986,0,0,1-3948,32Z" stroke="none"/>
      <path d="M -3931.999755859375 58.55744171142578 C -3927.591552734375 55.89572525024414 -3923.891357421875 52.15869903564453 -3921.2744140625 47.71866607666016 C -3918.47802734375 42.97467803955078 -3917 37.53928756713867 -3917 32.00010681152344 C -3917 26.46063613891602 -3918.47802734375 21.02508735656738 -3921.2744140625 16.28108596801758 C -3923.891357421875 11.84110355377197 -3927.591552734375 8.104138374328613 -3931.999755859375 5.44251823425293 C -3936.407958984375 8.104166030883789 -3940.1083984375 11.84114265441895 -3942.7255859375 16.28110694885254 C -3945.522216796875 21.02513694763184 -3947.000244140625 26.46068572998047 -3947.000244140625 32.00010681152344 C -3947.000244140625 37.53923797607422 -3945.522216796875 42.97461700439453 -3942.7255859375 47.71864700317383 C -3940.1083984375 52.15865707397461 -3936.407958984375 55.89570999145508 -3931.999755859375 58.55744171142578 M -3931.999755859375 59.7190055847168 C -3941.5654296875 54.18607711791992 -3948.000244140625 43.84477615356445 -3948.000244140625 32.00010681152344 C -3948.000244140625 20.15476608276367 -3941.5654296875 9.813666343688965 -3931.999755859375 4.280966758728027 C -3922.434326171875 9.813666343688965 -3916 20.15476608276367 -3916 32.00010681152344 C -3916 43.84477615356445 -3922.434326171875 54.18607711791992 -3931.999755859375 59.7190055847168 Z" stroke="none" fill="#383682"/>
    </g>
    <g id="Intersection_4" data-name="Intersection 4" transform="translate(187.828 97.482) rotate(135)" fill="none">
      <path d="M0,27.719A31.985,31.985,0,0,0,16,55.438,31.985,31.985,0,0,0,32,27.719,31.985,31.985,0,0,0,16,0,31.986,31.986,0,0,0,0,27.719Z" stroke="none"/>
      <path d="M 16.00048637390137 1.161594390869141 C 11.59222412109375 3.823337554931641 7.891836166381836 7.560398101806641 5.27458381652832 12.00041198730469 C 2.478134155273438 16.74444961547852 1.000003814697266 22.17985153198242 1.000003814697266 27.71898078918457 C 1.000003814697266 33.25840759277344 2.478134155273438 38.69395065307617 5.27458381652832 43.43798065185547 C 7.89179801940918 47.87794494628906 11.59220123291016 51.61492156982422 16.00049018859863 54.27656173706055 C 20.40871810913086 51.61492919921875 24.10901641845703 47.87795257568359 26.72613525390625 43.43796157836914 C 29.52243423461914 38.6939697265625 31.00048446655273 33.25840759277344 31.00048446655273 27.71891975402832 C 31.00048446655273 22.17972183227539 29.52243423461914 16.74433135986328 26.72613525390625 12.00035095214844 C 24.10898780822754 7.560317993164062 20.40868759155273 3.823280334472656 16.00048637390137 1.161594390869141 M 16.00048446655273 3.0517578125e-05 C 25.56616401672363 5.532939910888672 32.00048446655273 15.87424087524414 32.00048446655273 27.71891975402832 C 32.00048446655273 39.56427001953125 25.56616401672363 49.90538024902344 16.00048446655273 55.4381103515625 C 6.434814453125 49.90541839599609 3.814697265625e-06 39.5643310546875 3.814697265625e-06 27.71898078918457 C 3.814697265625e-06 15.87430191040039 6.434814453125 5.532981872558594 16.00048446655273 3.0517578125e-05 Z" stroke="none" fill="#383682"/>
    </g>
    <text id="BlueLine" transform="translate(220 99)" fill="#383682" font-size="27" font-family="Gulim" letter-spacing="-0.03em"><tspan x="0" y="0">Blue</tspan><tspan y="0" fill="#56c6be">Line</tspan></text>
  </g>
</svg>
