<svg xmlns="http://www.w3.org/2000/svg" xmlns:xlink="http://www.w3.org/1999/xlink" width="1920" height="1080" viewBox="0 0 1920 1080">
  <defs>
    <clipPath id="clip-MainBackground">
      <rect width="1920" height="1080"/>
    </clipPath>
  </defs>
  <g id="MainBackground" clip-path="url(#clip-MainBackground)">
    <rect width="1920" height="1080" fill="#fffcf1"/>
    <g id="Group_486" data-name="Group 486" transform="translate(-960 166)">
      <rect id="Rectangle_1" data-name="Rectangle 1" width="1920" height="1359" transform="translate(960)" fill="#f8ebb6"/>
      <path id="Intersection_1" data-name="Intersection 1" d="M0,448.805V1.824C.614,1.215,1.235.6,1.854,0H441.036A313.812,313.812,0,0,1,536,225.315C536,399.111,395.169,540,221.445,540A313.5,313.5,0,0,1,0,448.805Z" transform="translate(960)" fill="#f3db79"/>
      <circle id="Ellipse_2" data-name="Ellipse 2" cx="314.5" cy="314.5" r="314.5" transform="translate(1896 792)" fill="#f3db79"/>
      <g id="Group_88" data-name="Group 88" transform="translate(2418.513 305.044)">
        <g id="Group_86" data-name="Group 86">
          <path id="Path_60" data-name="Path 60" d="M99.055,190.61C52.85,190.61,7.5,145.26,7.5,99.055S52.85,7.5,99.055,7.5c38.725,0,68.876,32.315,90.89,55.91,3.939,4.223,7.661,8.21,11.074,11.627,22.257,22.255,43.282,43.28,86.225,21.8a81.948,81.948,0,0,0,19.847-14.128c-14.476-13.638-22.117-32.219-22.117-47.124,0-8.04,2.158-14.888,6.241-19.8,4.5-5.422,11.214-8.288,19.406-8.288,13.982,0,23.189,6.379,25.922,17.961,3.623,15.343-5.127,38.849-22.214,57.054a64.163,64.163,0,0,0,40.832,14.065c17.557,0,31.836-4.662,42.508-11.435q-1.551-1.524-3.045-3.164c-12.747-14.015-18.357-31.251-13.639-41.917,2.077-4.695,7.009-10.294,18.717-10.294,8.055,0,14.68,2.138,19.161,6.183,4.243,3.83,6.486,9.192,6.486,15.5,0,10.693-6.823,23.88-19.784,34.037,11.173,9.083,32.142,20.551,60.166,11.214a2.474,2.474,0,1,1,1.564,4.695c-23.456,7.819-47.491,2.981-65.936-12.867-11.531,7.681-27.051,12.994-46.2,12.994a68.809,68.809,0,0,1-44.3-15.507,87.612,87.612,0,0,1-21.4,15.246c-46.132,23.069-69.42-.216-91.938-22.735-3.476-3.474-7.224-7.493-11.194-11.747-21.394-22.932-50.7-54.337-87.271-54.337-42.9,0-86.606,43.707-86.606,86.606s43.707,86.606,86.606,86.606c42.876,0,64.847-21.333,65.063-21.548a2.474,2.474,0,0,1,3.5,3.5C166.677,168.554,144.1,190.61,99.055,190.61ZM399.7,34.719c-7.262,0-12.036,2.471-14.192,7.346C381.623,50.854,387,66.24,398.286,78.651c.878.967,2.07,2.207,3.562,3.6C414,73.083,420.4,61.135,420.4,51.456a15.406,15.406,0,0,0-4.853-11.83C411.99,36.417,406.511,34.719,399.7,34.719Zm-89.081-22.27c-6.768,0-12.016,2.187-15.6,6.5-3.336,4.014-5.1,9.769-5.1,16.64,0,13.8,7.125,31.025,20.617,43.643C326.5,62.252,334.976,40.361,331.727,26.6,329.542,17.342,322.243,12.449,310.621,12.449Z" transform="translate(-7.5 -7.5)" fill="#fff"/>
        </g>
        <g id="Group_87" data-name="Group 87" transform="translate(131.821 155.891)">
          <path id="Path_61" data-name="Path 61" d="M106.532,131.022a2.441,2.441,0,0,1-.731-.111,2.474,2.474,0,0,1-1.636-3.093l6.437-20.87H89.883a2.474,2.474,0,0,1,0-4.949h24.07a2.475,2.475,0,0,1,2.366,3.2L108.9,129.277A2.478,2.478,0,0,1,106.532,131.022Z" transform="translate(-87.409 -102)" fill="#fff"/>
        </g>
      </g>
      <g id="Group_108" data-name="Group 108" transform="matrix(0.848, 0.53, -0.53, 0.848, 1423.886, 472.286)">
        <g id="Group_40" data-name="Group 40" transform="translate(0 0)">
          <path id="Path_32" data-name="Path 32" d="M127.17,556.475c-18.525,0-34.272-4.355-45.536-12.6-12.422-9.088-18.988-22.654-18.988-39.232,0-19.6,9.16-35.541,26.492-46.1,15.158-9.237,35.963-14.118,60.167-14.118,39.276,0,80.167,12.49,107.455,33.75C272.126,455.6,281.9,427.925,281.9,395.514c0-36.62-15.8-73.114-45.088-105.223a268.473,268.473,0,0,1-22.429,18.759c-43.508,32.631-96.316,52.9-137.819,52.9-23.019,0-41.364-6.009-54.534-17.861C7.413,330.934,0,311.179,0,285.384c0-50.446,29.074-79.378,79.768-79.378,42.638,0,94.873,21.132,136.323,55.149a252.173,252.173,0,0,1,20.849,19.118c26.97-26.988,44.963-58.344,44.963-88.856,0-36.654-18.935-70.246-45.487-96.276q-5.026,4.566-10.464,9.012c-37.383,30.529-80.376,49.494-112.207,49.494-15.587,0-27.933-4.457-36.685-13.244-9.566-9.6-14.415-24.051-14.415-42.954,0-20.856,5.833-36.93,17.334-47.775C90.3,39.947,105.163,34.8,122.97,34.8c34.71,0,79.214,19.7,113.385,51.081C263,60.351,281.9,30.395,281.9,3.48a3.48,3.48,0,1,1,6.96,0c0,26.615-17.485,58.26-47.562,87.1,27.757,27.251,47.562,62.439,47.562,100.836,0,30.9-16.807,64.026-47.037,94.04,30.55,33.436,47.037,71.617,47.037,110.058,0,36.919-11.612,65.645-26.513,87.313,16.311,14.506,26.513,32.552,26.513,53.139a3.48,3.48,0,1,1-6.96,0c0-18.33-9-34.483-23.524-47.627a167.157,167.157,0,0,1-25.527,26.889C202.321,541.057,162.815,556.475,127.17,556.475ZM149.3,451.386c-22.926,0-42.478,4.529-56.545,13.1-15.364,9.362-23.153,22.872-23.153,40.158,0,14.469,5.429,25.78,16.137,33.615,10.065,7.364,24.392,11.255,41.427,11.255,40.863,0,93.513-22.889,125.664-65.84C226.919,463.361,187.314,451.386,149.3,451.386ZM79.768,212.966c-27.19,0-72.808,9.408-72.808,72.418,0,23.74,6.638,41.75,19.731,53.534,11.849,10.666,28.631,16.072,49.875,16.072,50.067,0,112.569-29.471,155.383-69.868a245.238,245.238,0,0,0-20.274-18.587C171.413,233.492,120.87,212.966,79.768,212.966Zm43.2-171.2c-34.413,0-53.364,19.777-53.364,55.685,0,17,4.167,29.794,12.385,38.042,7.4,7.427,18.086,11.195,31.754,11.195,35.051,0,82.246-24.072,117.715-56.237C198.738,60.531,156.177,41.763,122.97,41.763Z" fill="#fff"/>
        </g>
        <g id="Group_41" data-name="Group 41" transform="translate(250.58 0.001)">
          <path id="Path_33" data-name="Path 33" d="M52.208,38.284a3.489,3.489,0,0,1-3.046-1.791L33.593,8.47,5.412,27.256a3.48,3.48,0,0,1-3.861-5.791L32.874.583A3.478,3.478,0,0,1,37.846,1.79l17.4,31.323a3.476,3.476,0,0,1-1.352,4.731A3.439,3.439,0,0,1,52.208,38.284Z" fill="#fff"/>
        </g>
      </g>
    </g>
    <g id="Intersection_2" data-name="Intersection 2" transform="translate(4105 50)" fill="none">
      <path d="M-3948,32a31.985,31.985,0,0,1,16-27.719A31.985,31.985,0,0,1-3916,32a31.985,31.985,0,0,1-16,27.719A31.986,31.986,0,0,1-3948,32Z" stroke="none"/>
      <path d="M -3931.999755859375 58.55744171142578 C -3927.591552734375 55.89572525024414 -3923.891357421875 52.15869903564453 -3921.2744140625 47.71866607666016 C -3918.47802734375 42.97467803955078 -3917 37.53928756713867 -3917 32.00010681152344 C -3917 26.46063613891602 -3918.47802734375 21.02508735656738 -3921.2744140625 16.28108596801758 C -3923.891357421875 11.84110355377197 -3927.591552734375 8.104138374328613 -3931.999755859375 5.44251823425293 C -3936.407958984375 8.104166030883789 -3940.1083984375 11.84114265441895 -3942.7255859375 16.28110694885254 C -3945.522216796875 21.02513694763184 -3947.000244140625 26.46068572998047 -3947.000244140625 32.00010681152344 C -3947.000244140625 37.53923797607422 -3945.522216796875 42.97461700439453 -3942.7255859375 47.71864700317383 C -3940.1083984375 52.15865707397461 -3936.407958984375 55.89570999145508 -3931.999755859375 58.55744171142578 M -3931.999755859375 59.7190055847168 C -3941.5654296875 54.18607711791992 -3948.000244140625 43.84477615356445 -3948.000244140625 32.00010681152344 C -3948.000244140625 20.15476608276367 -3941.5654296875 9.813666343688965 -3931.999755859375 4.280966758728027 C -3922.434326171875 9.813666343688965 -3916 20.15476608276367 -3916 32.00010681152344 C -3916 43.84477615356445 -3922.434326171875 54.18607711791992 -3931.999755859375 59.7190055847168 Z" stroke="none" fill="#383682"/>
    </g>
    <g id="Intersection_3" data-name="Intersection 3" transform="translate(2991.971 2846.912) rotate(45)" fill="none">
      <path d="M-3948,32a31.985,31.985,0,0,1,16-27.719A31.985,31.985,0,0,1-3916,32a31.985,31.985,0,0,1-16,27.719A31.986,31.986,0,0,1-3948,32Z" stroke="none"/>
      <path d="M -3931.999755859375 58.55744171142578 C -3927.591552734375 55.89572525024414 -3923.891357421875 52.15869903564453 -3921.2744140625 47.71866607666016 C -3918.47802734375 42.97467803955078 -3917 37.53928756713867 -3917 32.00010681152344 C -3917 26.46063613891602 -3918.47802734375 21.02508735656738 -3921.2744140625 16.28108596801758 C -3923.891357421875 11.84110355377197 -3927.591552734375 8.104138374328613 -3931.999755859375 5.44251823425293 C -3936.407958984375 8.104166030883789 -3940.1083984375 11.84114265441895 -3942.7255859375 16.28110694885254 C -3945.522216796875 21.02513694763184 -3947.000244140625 26.46068572998047 -3947.000244140625 32.00010681152344 C -3947.000244140625 37.53923797607422 -3945.522216796875 42.97461700439453 -3942.7255859375 47.71864700317383 C -3940.1083984375 52.15865707397461 -3936.407958984375 55.89570999145508 -3931.999755859375 58.55744171142578 M -3931.999755859375 59.7190055847168 C -3941.5654296875 54.18607711791992 -3948.000244140625 43.84477615356445 -3948.000244140625 32.00010681152344 C -3948.000244140625 20.15476608276367 -3941.5654296875 9.813666343688965 -3931.999755859375 4.280966758728027 C -3922.434326171875 9.813666343688965 -3916 20.15476608276367 -3916 32.00010681152344 C -3916 43.84477615356445 -3922.434326171875 54.18607711791992 -3931.999755859375 59.7190055847168 Z" stroke="none" fill="#383682"/>
    </g>
    <g id="Intersection_4" data-name="Intersection 4" transform="translate(187.828 97.482) rotate(135)" fill="none">
      <path d="M0,27.719A31.985,31.985,0,0,0,16,55.438,31.985,31.985,0,0,0,32,27.719,31.985,31.985,0,0,0,16,0,31.986,31.986,0,0,0,0,27.719Z" stroke="none"/>
      <path d="M 16.00048637390137 1.161594390869141 C 11.59222412109375 3.823337554931641 7.891836166381836 7.560398101806641 5.27458381652832 12.00041198730469 C 2.478134155273438 16.74444961547852 1.000003814697266 22.17985153198242 1.000003814697266 27.71898078918457 C 1.000003814697266 33.25840759277344 2.478134155273438 38.69395065307617 5.27458381652832 43.43798065185547 C 7.89179801940918 47.87794494628906 11.59220123291016 51.61492156982422 16.00049018859863 54.27656173706055 C 20.40871810913086 51.61492919921875 24.10901641845703 47.87795257568359 26.72613525390625 43.43796157836914 C 29.52243423461914 38.6939697265625 31.00048446655273 33.25840759277344 31.00048446655273 27.71891975402832 C 31.00048446655273 22.17972183227539 29.52243423461914 16.74433135986328 26.72613525390625 12.00035095214844 C 24.10898780822754 7.560317993164062 20.40868759155273 3.823280334472656 16.00048637390137 1.161594390869141 M 16.00048446655273 3.0517578125e-05 C 25.56616401672363 5.532939910888672 32.00048446655273 15.87424087524414 32.00048446655273 27.71891975402832 C 32.00048446655273 39.56427001953125 25.56616401672363 49.90538024902344 16.00048446655273 55.4381103515625 C 6.434814453125 49.90541839599609 3.814697265625e-06 39.5643310546875 3.814697265625e-06 27.71898078918457 C 3.814697265625e-06 15.87430191040039 6.434814453125 5.532981872558594 16.00048446655273 3.0517578125e-05 Z" stroke="none" fill="#383682"/>
    </g>
    <text id="BlueLine" transform="translate(220 99)" fill="#383682" font-size="27" font-family="Gulim" letter-spacing="-0.03em"><tspan x="0" y="0">Blue</tspan><tspan y="0" fill="#56c6be">Line</tspan></text>
  </g>
</svg>
