<svg xmlns="http://www.w3.org/2000/svg" xmlns:xlink="http://www.w3.org/1999/xlink" width="1920" height="1080" viewBox="0 0 1920 1080">
  <defs>
    <clipPath id="clip-OtherBackground">
      <rect width="1920" height="1080"/>
    </clipPath>
  </defs>
  <g id="OtherBackground" clip-path="url(#clip-OtherBackground)">
    <rect width="1920" height="1080" fill="#fffcf1"/>
    <rect id="Rectangle_1" data-name="Rectangle 1" width="960" height="1080" transform="translate(960)" fill="#f8ebb6"/>
    <path id="Intersection_1" data-name="Intersection 1" d="M-3906,427.551V72.449c.488-.484.982-.969,1.474-1.449h349.051A249.255,249.255,0,0,1-3480,250c0,138.072-111.929,250-250,250A249.215,249.215,0,0,1-3906,427.551Z" transform="translate(4866 -71)" fill="#f3db79"/>
    <circle id="Ellipse_2" data-name="Ellipse 2" cx="250" cy="250" r="250" transform="translate(1704 630)" fill="#f3db79"/>
    <g id="Group_88" data-name="Group 88" transform="translate(1553.133 242.5)">
      <g id="Group_86" data-name="Group 86">
        <path id="Path_60" data-name="Path 60" d="M80.283,153.066C43.552,153.066,7.5,117.015,7.5,80.283S43.552,7.5,80.283,7.5c30.785,0,54.754,25.689,72.255,44.446,3.132,3.357,6.09,6.527,8.8,9.243,17.694,17.692,34.407,34.406,68.546,17.334a65.145,65.145,0,0,0,15.778-11.231c-11.508-10.841-17.582-25.613-17.582-37.462,0-6.392,1.715-11.835,4.961-15.742,3.58-4.311,8.915-6.589,15.427-6.589,11.115,0,18.434,5.071,20.607,14.279,2.88,12.2-4.076,30.884-17.659,45.356a51.008,51.008,0,0,0,32.46,11.181c13.957,0,25.309-3.706,33.792-9.091q-1.233-1.212-2.421-2.515c-10.133-11.142-14.593-24.843-10.843-33.323,1.651-3.732,5.572-8.183,14.879-8.183,6.4,0,11.67,1.7,15.232,4.915a16.076,16.076,0,0,1,5.156,12.325c0,8.5-5.424,18.984-15.728,27.058,8.882,7.221,25.551,16.338,47.83,8.915a1.967,1.967,0,1,1,1.243,3.732A53.046,53.046,0,0,1,320.6,71.92c-9.167,6.106-21.5,10.33-36.725,10.33a54.7,54.7,0,0,1-35.217-12.327,69.648,69.648,0,0,1-17.016,12.12c-36.674,18.339-55.187-.172-73.087-18.074-2.763-2.762-5.743-5.956-8.9-9.339-17.008-18.23-40.3-43.2-69.377-43.2-34.1,0-68.849,34.746-68.849,68.849s34.746,68.849,68.849,68.849c34.085,0,51.551-16.959,51.723-17.13a1.966,1.966,0,0,1,2.779,2.783C134.04,135.533,116.094,153.066,80.283,153.066Zm239-123.928c-5.773,0-9.568,1.964-11.282,5.84-3.09,6.987,1.182,19.219,10.157,29.084.7.768,1.646,1.755,2.831,2.864,9.66-7.29,14.748-16.789,14.748-24.483a12.247,12.247,0,0,0-3.858-9.4C329.056,30.488,324.7,29.138,319.288,29.138Zm-70.816-17.7c-5.381,0-9.552,1.739-12.4,5.168-2.652,3.191-4.052,7.766-4.052,13.228,0,10.974,5.664,24.664,16.39,34.695,12.687-13.5,19.426-30.9,16.842-41.843C263.513,15.324,257.71,11.434,248.471,11.434Z" transform="translate(-7.5 -7.5)" fill="#fff"/>
      </g>
      <g id="Group_87" data-name="Group 87" transform="translate(104.793 123.928)">
        <path id="Path_61" data-name="Path 61" d="M102.611,125.072a1.94,1.94,0,0,1-.581-.088,1.967,1.967,0,0,1-1.3-2.459l5.117-16.591H89.376a1.967,1.967,0,0,1,0-3.934h19.135a1.968,1.968,0,0,1,1.881,2.547l-5.9,19.137A1.97,1.97,0,0,1,102.611,125.072Z" transform="translate(-87.409 -102)" fill="#fff"/>
      </g>
    </g>
    <g id="Group_108" data-name="Group 108" transform="matrix(0.848, 0.53, -0.53, 0.848, 846.755, 368.708)">
      <g id="Group_40" data-name="Group 40" transform="translate(418.5 13.659)">
        <path id="Path_32" data-name="Path 32" d="M519.6,456.038c-14.726,0-27.245-3.462-36.2-10.016-9.875-7.225-15.1-18.009-15.1-31.188,0-15.582,7.282-28.254,21.06-36.648,12.05-7.343,28.589-11.224,47.831-11.224,31.223,0,63.73,9.929,85.423,26.83A115.045,115.045,0,0,0,642.6,328.08c0-29.111-12.563-58.123-35.844-83.649a213.42,213.42,0,0,1-17.831,14.913C554.342,285.284,512.362,301.4,479.368,301.4c-18.3,0-32.883-4.777-43.353-14.2C424.393,276.74,418.5,261.037,418.5,240.53c0-40.1,23.113-63.1,63.413-63.1,33.9,0,75.421,16.8,108.372,43.841a200.468,200.468,0,0,1,16.574,15.2c21.44-21.455,35.744-46.381,35.744-70.638,0-29.139-15.053-55.843-36.161-76.537q-4,3.63-8.319,7.164c-29.718,24.27-63.9,39.346-89.2,39.346-12.391,0-22.206-3.543-29.163-10.528-7.6-7.631-11.46-19.12-11.46-34.147,0-16.58,4.637-29.359,13.78-37.98,8.2-7.732,20.02-11.821,34.176-11.821,27.593,0,62.972,15.66,90.138,40.608,21.18-20.3,36.209-44.113,36.209-65.508a2.767,2.767,0,1,1,5.533,0c0,21.158-13.9,46.315-37.81,69.242,22.066,21.663,37.81,49.637,37.81,80.161,0,24.561-13.361,50.9-37.393,74.758,24.286,26.581,37.393,56.934,37.393,87.493,0,29.349-9.232,52.186-21.077,69.411,12.967,11.532,21.077,25.878,21.077,42.244a2.767,2.767,0,1,1-5.533,0c0-14.571-7.155-27.413-18.7-37.862a132.886,132.886,0,0,1-20.293,21.376C579.338,443.782,547.932,456.038,519.6,456.038Zm17.6-83.542c-18.225,0-33.769,3.6-44.952,10.414-12.214,7.442-18.406,18.183-18.406,31.924,0,11.5,4.316,20.494,12.828,26.723,8,5.854,19.391,8.948,32.933,8.948,32.485,0,74.34-18.2,99.9-52.341C598.894,382.016,567.408,372.5,537.192,372.5ZM481.913,182.96c-21.615,0-57.88,7.479-57.88,57.57,0,18.873,5.277,33.19,15.685,42.558,9.42,8.479,22.761,12.777,39.649,12.777,39.8,0,89.488-23.429,123.525-55.543a194.961,194.961,0,0,0-16.117-14.776C554.768,199.278,514.588,182.96,481.913,182.96Zm34.344-136.1c-27.357,0-42.423,15.722-42.423,44.267,0,13.511,3.313,23.685,9.846,30.242,5.882,5.9,14.378,8.9,25.243,8.9,27.865,0,65.383-19.136,93.58-44.706C576.49,61.78,542.655,46.86,516.257,46.86Z" transform="translate(-418.5 -13.659)" fill="#fff"/>
      </g>
      <g id="Group_41" data-name="Group 41" transform="translate(617.703 13.66)">
        <path id="Path_33" data-name="Path 33" d="M568,44.094a2.773,2.773,0,0,1-2.422-1.424L553.2,20.393,530.8,35.327a2.767,2.767,0,1,1-3.069-4.6l24.9-16.6a2.765,2.765,0,0,1,3.953.959l13.834,24.9a2.763,2.763,0,0,1-1.075,3.761A2.734,2.734,0,0,1,568,44.094Z" transform="translate(-526.5 -13.66)" fill="#fff"/>
      </g>
    </g>
    <g id="Intersection_2" data-name="Intersection 2" transform="translate(4105 50)" fill="none">
      <path d="M-3948,32a31.985,31.985,0,0,1,16-27.719A31.985,31.985,0,0,1-3916,32a31.985,31.985,0,0,1-16,27.719A31.986,31.986,0,0,1-3948,32Z" stroke="none"/>
      <path d="M -3931.999755859375 58.55744171142578 C -3927.591552734375 55.89572525024414 -3923.891357421875 52.15869903564453 -3921.2744140625 47.71866607666016 C -3918.47802734375 42.97467803955078 -3917 37.53928756713867 -3917 32.00010681152344 C -3917 26.46063613891602 -3918.47802734375 21.02508735656738 -3921.2744140625 16.28108596801758 C -3923.891357421875 11.84110355377197 -3927.591552734375 8.104138374328613 -3931.999755859375 5.44251823425293 C -3936.407958984375 8.104166030883789 -3940.1083984375 11.84114265441895 -3942.7255859375 16.28110694885254 C -3945.522216796875 21.02513694763184 -3947.000244140625 26.46068572998047 -3947.000244140625 32.00010681152344 C -3947.000244140625 37.53923797607422 -3945.522216796875 42.97461700439453 -3942.7255859375 47.71864700317383 C -3940.1083984375 52.15865707397461 -3936.407958984375 55.89570999145508 -3931.999755859375 58.55744171142578 M -3931.999755859375 59.7190055847168 C -3941.5654296875 54.18607711791992 -3948.000244140625 43.84477615356445 -3948.000244140625 32.00010681152344 C -3948.000244140625 20.15476608276367 -3941.5654296875 9.813666343688965 -3931.999755859375 4.280966758728027 C -3922.434326171875 9.813666343688965 -3916 20.15476608276367 -3916 32.00010681152344 C -3916 43.84477615356445 -3922.434326171875 54.18607711791992 -3931.999755859375 59.7190055847168 Z" stroke="none" fill="#383682"/>
    </g>
    <g id="Intersection_3" data-name="Intersection 3" transform="translate(2991.971 2846.912) rotate(45)" fill="none">
      <path d="M-3948,32a31.985,31.985,0,0,1,16-27.719A31.985,31.985,0,0,1-3916,32a31.985,31.985,0,0,1-16,27.719A31.986,31.986,0,0,1-3948,32Z" stroke="none"/>
      <path d="M -3931.999755859375 58.55744171142578 C -3927.591552734375 55.89572525024414 -3923.891357421875 52.15869903564453 -3921.2744140625 47.71866607666016 C -3918.47802734375 42.97467803955078 -3917 37.53928756713867 -3917 32.00010681152344 C -3917 26.46063613891602 -3918.47802734375 21.02508735656738 -3921.2744140625 16.28108596801758 C -3923.891357421875 11.84110355377197 -3927.591552734375 8.104138374328613 -3931.999755859375 5.44251823425293 C -3936.407958984375 8.104166030883789 -3940.1083984375 11.84114265441895 -3942.7255859375 16.28110694885254 C -3945.522216796875 21.02513694763184 -3947.000244140625 26.46068572998047 -3947.000244140625 32.00010681152344 C -3947.000244140625 37.53923797607422 -3945.522216796875 42.97461700439453 -3942.7255859375 47.71864700317383 C -3940.1083984375 52.15865707397461 -3936.407958984375 55.89570999145508 -3931.999755859375 58.55744171142578 M -3931.999755859375 59.7190055847168 C -3941.5654296875 54.18607711791992 -3948.000244140625 43.84477615356445 -3948.000244140625 32.00010681152344 C -3948.000244140625 20.15476608276367 -3941.5654296875 9.813666343688965 -3931.999755859375 4.280966758728027 C -3922.434326171875 9.813666343688965 -3916 20.15476608276367 -3916 32.00010681152344 C -3916 43.84477615356445 -3922.434326171875 54.18607711791992 -3931.999755859375 59.7190055847168 Z" stroke="none" fill="#383682"/>
    </g>
    <g id="Intersection_4" data-name="Intersection 4" transform="translate(187.828 97.482) rotate(135)" fill="none">
      <path d="M0,27.719A31.985,31.985,0,0,0,16,55.438,31.985,31.985,0,0,0,32,27.719,31.985,31.985,0,0,0,16,0,31.986,31.986,0,0,0,0,27.719Z" stroke="none"/>
      <path d="M 16.00048637390137 1.161594390869141 C 11.59222412109375 3.823337554931641 7.891836166381836 7.560398101806641 5.27458381652832 12.00041198730469 C 2.478134155273438 16.74444961547852 1.000003814697266 22.17985153198242 1.000003814697266 27.71898078918457 C 1.000003814697266 33.25840759277344 2.478134155273438 38.69395065307617 5.27458381652832 43.43798065185547 C 7.89179801940918 47.87794494628906 11.59220123291016 51.61492156982422 16.00049018859863 54.27656173706055 C 20.40871810913086 51.61492919921875 24.10901641845703 47.87795257568359 26.72613525390625 43.43796157836914 C 29.52243423461914 38.6939697265625 31.00048446655273 33.25840759277344 31.00048446655273 27.71891975402832 C 31.00048446655273 22.17972183227539 29.52243423461914 16.74433135986328 26.72613525390625 12.00035095214844 C 24.10898780822754 7.560317993164062 20.40868759155273 3.823280334472656 16.00048637390137 1.161594390869141 M 16.00048446655273 3.0517578125e-05 C 25.56616401672363 5.532939910888672 32.00048446655273 15.87424087524414 32.00048446655273 27.71891975402832 C 32.00048446655273 39.56427001953125 25.56616401672363 49.90538024902344 16.00048446655273 55.4381103515625 C 6.434814453125 49.90541839599609 3.814697265625e-06 39.5643310546875 3.814697265625e-06 27.71898078918457 C 3.814697265625e-06 15.87430191040039 6.434814453125 5.532981872558594 16.00048446655273 3.0517578125e-05 Z" stroke="none" fill="#383682"/>
    </g>
    <text id="BlueLine" transform="translate(220 99)" fill="#383682" font-size="27" font-family="Gulim" letter-spacing="-0.03em"><tspan x="0" y="0">Blue</tspan><tspan y="0" fill="#56c6be">Line</tspan></text>
  </g>
</svg>
